<?xml version="1.0" encoding="utf-8"?>
<!-- Generator: Adobe Illustrator 16.0.0, SVG Export Plug-In . SVG Version: 6.00 Build 0)  -->
<!DOCTYPE svg PUBLIC "-//W3C//DTD SVG 1.1//EN" "http://www.w3.org/Graphics/SVG/1.1/DTD/svg11.dtd">
<svg version="1.1" id="Layer_1" xmlns="http://www.w3.org/2000/svg" xmlns:xlink="http://www.w3.org/1999/xlink" x="0px" y="0px"
	 width="205.851px" height="134.411px" viewBox="0 0 205.851 134.411" enable-background="new 0 0 205.851 134.411"
	 xml:space="preserve">
<g>
	<path fill="#FFFFFF" d="M13.626,39.74c-1.58,0.656-2.692,1.678-3.338,3.065c-0.645,1.387-0.607,2.948,0.114,4.685
		c0.721,1.735,1.808,3.105,3.262,4.108c1.456,1.005,3.031,1.714,4.73,2.127c1.699,0.415,3.55,0.857,5.557,1.326
		c2.006,0.47,3.866,0.929,5.578,1.377c1.713,0.449,3.315,1.22,4.806,2.31c1.491,1.091,2.575,2.452,3.252,4.084
		c1.341,3.228,1.156,6.511-0.552,9.845c-1.709,3.335-4.707,5.893-8.995,7.673c-4.288,1.779-8.063,2.269-11.326,1.466
		c-3.264-0.801-5.378-2.365-6.344-4.691s-1.025-4.428-0.177-6.308c0.848-1.877,2.366-3.271,4.553-4.179
		c0.625-0.26,1.245-0.435,1.857-0.527c-0.413,2.044-0.234,3.995,0.537,5.852c0.771,1.858,2.007,3.218,3.708,4.077
		c1.701,0.862,3.496,0.899,5.389,0.113c1.892-0.785,3.275-1.939,4.149-3.462c0.872-1.522,0.99-3.057,0.348-4.602
		c-0.641-1.545-1.641-2.728-2.999-3.548c-1.359-0.819-2.857-1.388-4.494-1.706c-1.638-0.316-3.447-0.705-5.428-1.164
		c-1.982-0.46-3.847-0.978-5.592-1.556c-1.746-0.578-3.41-1.546-4.991-2.904c-1.581-1.357-2.796-3.061-3.647-5.109
		c-1.369-3.299-1.263-6.426,0.318-9.382c1.581-2.956,4.402-5.277,8.464-6.963c4.062-1.688,7.521-2.054,10.379-1.104
		c2.856,0.95,4.714,2.459,5.572,4.524c0.858,2.065,0.919,4.075,0.183,6.029c-0.736,1.954-2.232,3.399-4.488,4.336
		c-0.764,0.317-1.539,0.559-2.326,0.722c0.951-2.511,1.013-4.766,0.184-6.763c-0.829-1.996-2.016-3.284-3.558-3.864
		C16.767,39.046,15.205,39.084,13.626,39.74z"/>
	<path fill="#FFFFFF" d="M49.723,62.771c0.294,1.378,0.789,2.444,1.487,3.2c0.698,0.756,1.516,1.034,2.455,0.834
		c1.378-0.294,2.519-1.381,3.421-3.26s1.458-4.159,1.668-6.842c0.21-2.682,0.073-5.159-0.412-7.433
		c-0.486-2.272-0.966-4.094-1.442-5.464c0.867-0.246,1.478-0.407,1.829-0.482c1.496-0.319,2.684-0.28,3.566,0.113
		c0.881,0.395,1.475,1.311,1.782,2.748c0.119,0.557,0.25,2.897,0.394,7.021c0.144,4.125,0.47,7.382,0.98,9.773
		c0.509,2.39,1.416,4.411,2.72,6.065c-2.281,0.088-4.068-0.381-5.36-1.409c-1.293-1.027-2.189-2.715-2.689-5.061
		c-0.087-0.411-0.198-1.216-0.33-2.414c-0.198,2.955-1.127,5.5-2.788,7.632c-1.662,2.134-3.467,3.407-5.417,3.823
		c-1.951,0.417-3.675,0.024-5.172-1.173c-1.498-1.198-2.531-3.132-3.101-5.802c-0.568-2.669-0.645-5.359-0.226-8.07
		c0.418-2.711,1.395-5.142,2.929-7.294c1.534-2.151,3.474-3.478,5.821-3.979c1.349-0.287,2.796-0.258,4.341,0.086
		c-2.737,1.688-4.655,4.267-5.755,7.736C49.324,56.592,49.09,59.808,49.723,62.771z"/>
	<path fill="#FFFFFF" d="M118.298,39.55c1.799,0.057,3.3,0.991,4.501,2.799c1.202,1.809,1.755,4.198,1.659,7.165
		c-0.104,3.327-0.877,6.363-2.316,9.107c-1.601,3.1-3.797,5.205-6.593,6.315c-1.582,0.639-3.299,0.93-5.158,0.869
		c-2.607-0.083-4.846-1.167-6.715-3.253c-1.867-2.085-2.742-5.022-2.62-8.815c0.121-3.791,1.156-7.104,3.108-9.937
		s4.468-4.576,7.549-5.228c0.329,0.011,0.632,0.119,0.911,0.322c0.279,0.204,0.416,0.411,0.408,0.621
		c-3.094,2.001-5,4.866-5.72,8.593c0.684-1.658,1.501-3.087,2.456-4.287c0.952-1.2,1.934-2.099,2.944-2.696
		C114.637,40.018,116.5,39.493,118.298,39.55z M115.406,42.742c-1.95-0.062-3.73,1.194-5.343,3.768s-2.459,5.164-2.545,7.772
		c-0.174,5.456,1.148,8.229,3.967,8.318c2.006,0.063,3.682-1.194,5.025-3.777c1.343-2.582,2.067-5.507,2.173-8.774
		C118.836,45.254,117.743,42.817,115.406,42.742z"/>
	<path fill="#FFFFFF" d="M148.162,41.945c-0.197,1.521-0.604,2.54-1.218,3.055c-0.615,0.517-1.595,0.688-2.942,0.513
		c-1.347-0.175-2.383-0.325-3.106-0.452c-2.405,8.839-3.858,15.206-4.365,19.104c-0.242,1.869-0.379,3.229-0.408,4.079
		c-0.031,0.85-0.004,2.312,0.083,4.386c-2.187-1.026-3.713-2.425-4.578-4.196c-0.866-1.772-1.155-3.767-0.869-5.984
		c0.433-3.327,1.547-8.177,3.339-14.549c0.438-1.618,0.72-2.693,0.855-3.225c-1.718,0.067-3.5,0.385-5.344,0.95
		c0.027-0.705,0.064-1.232,0.108-1.581c0.222-1.711,0.896-2.8,2.019-3.266s2.67-0.588,4.641-0.365
		c1.035-3.023,2.229-5.59,3.584-7.702c1.352-2.112,2.736-3.657,4.154-4.632c2.694-1.905,5.358-2.688,7.988-2.346
		c1.775,0.23,3.201,0.956,4.285,2.175c1.083,1.22,1.523,2.599,1.324,4.135c-0.199,1.538-0.896,2.808-2.09,3.812
		c-1.195,1.005-2.646,1.397-4.357,1.175c-0.666-0.086-1.3-0.282-1.906-0.586c0.557-0.314,1.143-0.915,1.759-1.801
		c0.61-0.887,0.975-1.75,1.085-2.59c0.108-0.839,0.011-1.521-0.291-2.043c-0.304-0.522-0.757-0.823-1.357-0.9
		c-1.3-0.169-2.764,0.744-4.394,2.74c-1.628,1.996-3.057,5.137-4.291,9.422c2.819,0.366,4.948,0.111,6.383-0.766
		C148.233,41.148,148.202,41.628,148.162,41.945z"/>
	<path fill="#FFFFFF" d="M170.124,48.221c0.823,0.638,1.389,1.451,1.873,2.663c0.805,2.018,0.854,4.468,0.152,7.353
		c-0.788,3.234-2.169,6.047-4.14,8.437c-2.204,2.705-4.788,4.312-7.751,4.824c-1.678,0.301-3.42,0.231-5.229-0.209
		c-0.272-0.066-0.312-0.07-0.571-0.159c-1.154,1.917-1.908,3.372-2.412,4.617c-0.293-0.071-0.686-0.26-1.183-0.565
		c-0.495-0.307-0.89-0.619-1.183-0.937c-0.294-0.319-0.533-0.732-0.718-1.24c-0.183-0.508-0.208-1.04-0.075-1.593
		c0.138-0.561,0.622-1.475,1.549-2.889l-0.01,0.015c-0.541-0.577-0.865-1.063-1.298-1.813c-1.401-2.424-1.65-5.479-0.752-9.166
		c0.897-3.685,2.593-6.713,5.085-9.086c2.491-2.371,5.312-3.558,8.462-3.562c0.32,0.078,0.595,0.246,0.828,0.503
		c0.229,0.258,0.319,0.487,0.27,0.69c-3.438,1.323-5.896,3.733-7.364,7.233c1.009-1.481,2.104-2.712,3.283-3.69
		c1.179-0.978,2.326-1.655,3.437-2.033c1.41-0.459,2.624-0.674,3.872-0.637c1.744-2.525,2.906-4.462,3.488-5.811
		c0.188,0.108,0.44,0.339,0.757,0.693c0.312,0.354,0.556,0.691,0.724,1.011c0.464,0.885,0.591,1.757,0.383,2.616
		C171.486,45.951,170.993,46.863,170.124,48.221z M156.269,68.224c0.156,0.06,0.32,0.11,0.491,0.152
		c1.952,0.476,3.851-0.412,5.696-2.664c1.845-2.25,3.154-4.964,3.93-8.14c0.49-2.02,0.707-3.472,0.56-4.721
		c-2.742,3.844-5.664,8.022-8.764,12.537C157.458,66.446,156.878,67.288,156.269,68.224z"/>
	<path fill="#FFFFFF" d="M197.802,57.832c1.625,0.701,2.571,1.705,2.84,3.013c0.27,1.308,0.033,2.822-0.707,4.544
		c-0.742,1.722-2.053,4.022-3.93,6.903c-1.88,2.881-3.123,5.03-3.734,6.449s-0.877,2.527-0.798,3.329
		c0.079,0.803,0.444,1.62,1.098,2.458c-0.37-0.129-0.886-0.333-1.547-0.62c-2.314-0.995-3.805-2.062-4.475-3.199
		c-0.669-1.138-0.619-2.602,0.154-4.393c0.437-1.019,1.571-2.89,3.397-5.613c1.825-2.723,3.054-4.814,3.684-6.274
		c0.782-1.817,0.624-2.964-0.478-3.438c-0.635-0.273-1.51-0.21-2.628,0.189c-1.121,0.399-2.329,1.079-3.622,2.04
		c-1.298,0.96-2.626,2.339-3.988,4.135c-1.361,1.798-2.474,3.694-3.333,5.69c-0.86,1.998-1.415,3.514-1.665,4.548
		c-0.906-0.324-1.497-0.545-1.771-0.664c-1.569-0.677-2.582-1.438-3.031-2.287c-0.453-0.846-0.403-1.904,0.142-3.17
		c0.237-0.552,1.438-2.547,3.609-5.989c2.168-3.44,3.726-6.257,4.668-8.446c0.943-2.189,1.577-4.308,1.906-6.354
		c1.736,1.5,2.753,3.007,3.048,4.521c0.293,1.515,0.116,3.022-0.528,4.523c-0.648,1.501-1.563,3.172-2.748,5.013
		c2.236-2.692,4.796-4.692,7.678-5.998S196.176,57.132,197.802,57.832z"/>
</g>
<g>
	<g>
		<defs>
			<path id="SVGID_1_" d="M83.736,1.777C83.768,1.8,83.8,1.823,83.832,1.846c0.082,3.937,0.164,7.876,0.247,11.812
				c0.222,11.879,0.445,23.761,0.667,35.641c0.409,0.98,4.962,3.756,6.028,4.645c1.83,1.479,3.659,2.96,5.488,4.438
				c3.359,3.108,6.258,7.189,10.532,8.996c1.41,0.597,3.011,0.365,4.745,0.619c1.8,0.264,3.684,1.021,4.962,2.061
				c1.857,1.505,3.252,3.358,4.146,6.245c0.326,1.055,0.156,3.793,0.352,4.117c1.068,1.77,3.858,2.449,5.884,2.898
				c0.694,0.153,3.545,0.433,3.813,0.858c0.31,0.49-1.007,1.601-1.294,1.84c-3.68,3.073-6.435-1.829-9.672-1.438
				c-0.043,0.021-0.089,0.042-0.135,0.064c-0.349,0.48-0.696,0.961-1.045,1.44c-0.751,0.859-1.699,1.773-2.766,2.381
				c-5.16,2.938-10.46,0.401-13.084-2.558c-1.761-1.985-3.046-5.63-2.61-8.928c0.185-1.398,0.875-2.797,0.284-4.729
				c-2.092-6.833-8.709-11.741-13.655-14.802c-0.799-0.494-4.322-2.945-5.234-2.668c-1.861,3.722-3.034,8.046-3.98,12.394
				c-0.548,2.513-1.29,5.191-1.357,8.03c-0.041,1.722,0.844,2.755,1.281,4.005c0.694,1.983,1.16,5.054,1.051,7.037
				c-0.03,0.574-0.062,1.15-0.092,1.724c-0.433,0.475-0.868,0.946-1.302,1.421c-2.293,2.422-6.689,6.482-11.44,4.486
				c-6.032-2.532-9.989-9.793-6.361-16.97c0.991-1.959,2.729-3.761,5.097-4.712c1.845-0.742,3.558-1.076,4.835-2.117
				c3.704-3.018,4.583-8.21,5.84-13c0.268-1.085,0.537-2.17,0.806-3.256c-6.153-11.61-12.309-23.226-18.461-34.836
				c-1.732-3.296-3.465-6.592-5.197-9.888c0.027-0.005,0.054-0.009,0.082-0.014c4.108,5.19,8.219,10.382,12.328,15.571
				c2.428,3.046,4.858,6.093,7.286,9.138c0.752,0.855,5.962,7.615,6.249,7.603C80.011,28.19,81.874,14.982,83.736,1.777
				L83.736,1.777z M23.414,20.832c1.141,0.265,2.283,0.532,3.424,0.797c1.682,0.183,3.365,0.366,5.048,0.549
				c5.752,0.414,11.805-0.516,18.201-0.894c2.197-0.233,4.394-0.467,6.591-0.701c0.205,0.091,1.363,2.424,1.372,2.786
				c-0.023,0.025-0.048,0.051-0.071,0.076c-3.02,0.481-6.464,0.56-9.372,0.597c-6.461,0.081-12.7,0.394-18.147-0.93
				C29.078,22.775,23.95,21.731,23.414,20.832L23.414,20.832z M62.904,19.731c5.727-0.775,11.455-1.551,17.181-2.325
				c0.017,0.01,0.032,0.022,0.049,0.033c-0.146,1.101-0.293,2.202-0.44,3.301c-0.951,0.152-1.903,0.304-2.855,0.457
				c-2.829,0.361-5.658,0.722-8.488,1.082c-1.053,0.133-2.106,0.269-3.161,0.401C64.954,22.634,62.861,19.909,62.904,19.731
				L62.904,19.731z M85.52,16.728c11.604-1.529,23.042-2.301,32.647-1.03c3.036,0.401,6.158,1.282,8.285,3.001
				c0.127,0.103,0.264,0.129,0.154,0.291c-1.832-1.286-4.352-1.516-6.886-1.823c-4.784-0.578-10.314,0.133-15.814,0.41
				c-2.549,0.314-5.098,0.628-7.647,0.942c-3.554,0.482-7.108,0.963-10.663,1.446C85.395,19.689,85.327,16.927,85.52,16.728
				L85.52,16.728z M28.276,26.704c0.76,0.21,1.519,0.421,2.279,0.632c1.682,0.322,3.454,0.551,5.247,0.725
				c5.28,0.511,11.016-0.204,16.908-0.55c2.349-0.252,4.697-0.504,7.045-0.757c0.169,0.08,1.317,2.463,1.329,2.773
				c-0.549,0.042-1.097,0.085-1.646,0.127c-1.934,0.12-3.87,0.24-5.803,0.359c-6.741,0.092-12.97,0.114-18.672-1.032
				C33.86,28.759,28.361,27.333,28.276,26.704L28.276,26.704z M67.679,25.703c3.83-0.513,7.661-1.028,11.491-1.542
				c0.016,0.011,0.031,0.023,0.047,0.034c0.08,0.662-0.209,2.878-0.473,3.349c-2.932,0.377-5.864,0.756-8.796,1.133
				C69.708,28.609,67.634,25.86,67.679,25.703L67.679,25.703z M32.172,31.832c1.016,0.188,2.031,0.377,3.048,0.565
				c1.804,0.208,3.729,0.284,5.623,0.452c4.876,0.435,10.313-0.397,15.52-0.656c1.925-0.174,3.851-0.348,5.775-0.523
				c0.262,0.47,0.523,0.939,0.784,1.409c0.204,0.458,0.406,0.916,0.61,1.375c-1.767,0.077-3.533,0.154-5.298,0.231
				c-6.941-0.014-13.424,0.202-19.43-0.904C37.583,33.556,32.598,32.615,32.172,31.832L32.172,31.832z M85.763,23.228
				c11.296-1.597,22.741-2.655,32.579-2.075c3.838,0.227,7.484,0.664,10.562,1.988c1.057,0.456,1.911,1.12,2.826,1.763
				c0.004,0.027,0.01,0.055,0.014,0.082c-1.002-0.401-2.004-0.804-3.006-1.205c-1.684-0.448-3.57-0.621-5.412-0.826
				c-5.108-0.565-10.813,0.614-16.481,0.838c-7.014,0.934-14.031,1.868-21.045,2.803C85.572,26.256,85.551,23.404,85.763,23.228
				L85.763,23.228z M71.567,30.664c0.961-0.121,6.561-0.931,6.894-0.646c-0.008,0.863-0.103,2.548-0.515,3.228
				c-1.325,0.146-2.651,0.289-3.977,0.434C73.809,33.653,71.558,30.8,71.567,30.664L71.567,30.664z M85.893,29.048
				c3.181-0.315,6.363-0.629,9.544-0.943c9.786-0.585,19.21-1.754,27.826-0.983c2.416,0.216,9.221,1.015,10.073,2.723
				c-0.006,0.008-0.013,0.017-0.017,0.024c-0.52-0.208-1.039-0.416-1.559-0.625c-1.316-0.369-2.82-0.597-4.309-0.651
				c-5.152-0.185-10.745,0.611-16.438,0.852c-2.048,0.229-4.098,0.46-6.146,0.69c-6.286,0.756-12.574,1.513-18.857,2.269
				C85.811,32.024,85.736,29.312,85.893,29.048L85.893,29.048z M78.95,47.062c-0.527,0.339-1.139,0.456-1.398,0.972
				c-0.762,1.517,0.369,3.93,2.406,3.289C82.512,50.519,81.793,46.617,78.95,47.062L78.95,47.062z M66.49,75.09
				c-0.682,0.309-1.307,0.421-1.877,0.757c-2.095,1.23-3.228,3.863-3.317,6.523c-0.154,4.635,4.159,9.734,8.344,8.392
				C77.922,88.104,75.106,73.584,66.49,75.09L66.49,75.09z M108.678,71.45c-1.339,0.558-2.316,0.865-3.172,1.711
				c-4.884,4.822-0.314,15.702,7.664,12.787C120.932,83.112,117.714,69.875,108.678,71.45L108.678,71.45z"/>
		</defs>
		<use xlink:href="#SVGID_1_"  overflow="visible" fill-rule="evenodd" clip-rule="evenodd" fill="#FFFFFF"/>
		<clipPath id="SVGID_2_">
			<use xlink:href="#SVGID_1_"  overflow="visible"/>
		</clipPath>
	</g>
</g>
<path fill-rule="evenodd" clip-rule="evenodd" fill="#FFFFFF" d="M3.979,122.239c0,0,48.753-19.901,102.345-20.018
	c53.596-0.119,96.093,20.6,96.093,20.721c0,0.118-36.123-16.617-96.086-15.887C46.368,107.785,1.748,132.377,1.748,132.377
	L3.979,122.239z"/>
<path d="M153.778,64.258c0.015-1.198,0.22-2.5,0.619-4.145c0.62-2.534,1.981-4.896,4.088-7.083c2.05-2.126,3.998-2.974,5.67-2.689
	c-0.306,0.42-0.622,0.85-0.952,1.293C159.982,55.96,156.955,60.017,153.778,64.258"/>
</svg>
